<mxfile host="app.diagrams.net" modified="2022-10-15T05:46:03.533Z" agent="5.0 (Windows NT 10.0; Win64; x64) AppleWebKit/537.36 (KHTML, like Gecko) Chrome/106.0.0.0 Safari/537.36 Edg/106.0.1370.42" etag="2hSH5B01HS2cp06z5EKM" version="20.4.1" type="github">
  <diagram id="EkaKm7KtxDTICqI6jahp" name="第 1 页">
    <mxGraphModel dx="716" dy="399" grid="0" gridSize="10" guides="1" tooltips="1" connect="1" arrows="1" fold="1" page="1" pageScale="1" pageWidth="827" pageHeight="1169" math="0" shadow="0">
      <root>
        <mxCell id="0" />
        <mxCell id="1" parent="0" />
        <mxCell id="GCXEATkM0BUE0gOloB9m-1" value="" style="rounded=0;whiteSpace=wrap;html=1;fillColor=#99A4AD;strokeColor=#23445d;" vertex="1" parent="1">
          <mxGeometry x="100" y="233" width="580" height="107" as="geometry" />
        </mxCell>
        <mxCell id="GCXEATkM0BUE0gOloB9m-2" value="" style="endArrow=none;html=1;rounded=0;exitX=0;exitY=0.25;exitDx=0;exitDy=0;entryX=1;entryY=0.25;entryDx=0;entryDy=0;dashed=1;strokeColor=#FFFFFF;" edge="1" parent="1">
          <mxGeometry width="50" height="50" relative="1" as="geometry">
            <mxPoint x="100" y="267.7499999999999" as="sourcePoint" />
            <mxPoint x="680" y="267.75" as="targetPoint" />
            <Array as="points" />
          </mxGeometry>
        </mxCell>
        <mxCell id="GCXEATkM0BUE0gOloB9m-3" value="" style="endArrow=none;html=1;rounded=0;exitX=0;exitY=0.25;exitDx=0;exitDy=0;entryX=1;entryY=0.25;entryDx=0;entryDy=0;dashed=1;strokeColor=#FFFFFF;" edge="1" parent="1">
          <mxGeometry width="50" height="50" relative="1" as="geometry">
            <mxPoint x="100" y="294" as="sourcePoint" />
            <mxPoint x="680" y="294" as="targetPoint" />
            <Array as="points" />
          </mxGeometry>
        </mxCell>
        <mxCell id="GCXEATkM0BUE0gOloB9m-4" value="" style="endArrow=none;html=1;rounded=0;exitX=0;exitY=0.25;exitDx=0;exitDy=0;entryX=1;entryY=0.25;entryDx=0;entryDy=0;strokeColor=#FFFFFF;" edge="1" parent="1">
          <mxGeometry width="50" height="50" relative="1" as="geometry">
            <mxPoint x="100" y="312" as="sourcePoint" />
            <mxPoint x="680" y="312" as="targetPoint" />
            <Array as="points" />
          </mxGeometry>
        </mxCell>
        <mxCell id="GCXEATkM0BUE0gOloB9m-6" value="" style="rounded=0;whiteSpace=wrap;html=1;fillColor=#5C6369;" vertex="1" parent="1">
          <mxGeometry x="100" y="313" width="580" height="12" as="geometry" />
        </mxCell>
        <mxCell id="GCXEATkM0BUE0gOloB9m-7" value="" style="endArrow=none;html=1;rounded=0;exitX=0;exitY=0.25;exitDx=0;exitDy=0;entryX=1;entryY=0.25;entryDx=0;entryDy=0;strokeColor=#FFFFFF;" edge="1" parent="1">
          <mxGeometry width="50" height="50" relative="1" as="geometry">
            <mxPoint x="100" y="241" as="sourcePoint" />
            <mxPoint x="680" y="241" as="targetPoint" />
            <Array as="points" />
          </mxGeometry>
        </mxCell>
        <mxCell id="GCXEATkM0BUE0gOloB9m-9" value="" style="shape=image;html=1;verticalAlign=top;verticalLabelPosition=bottom;labelBackgroundColor=#ffffff;imageAspect=0;aspect=fixed;image=https://cdn4.iconfinder.com/data/icons/transportation-and-vehicle/128/Transportation_And_Vehicle_3-03-128.png;fillColor=#5C6369;imageBackground=none;imageBorder=none;sketch=0;movableLabel=0;" vertex="1" parent="1">
          <mxGeometry x="593" y="236" width="35" height="35" as="geometry" />
        </mxCell>
        <mxCell id="GCXEATkM0BUE0gOloB9m-10" value="" style="shape=image;html=1;verticalAlign=top;verticalLabelPosition=bottom;labelBackgroundColor=#ffffff;imageAspect=0;aspect=fixed;image=https://cdn4.iconfinder.com/data/icons/transportation-and-vehicle/128/Transportation_And_Vehicle_3-03-128.png;fillColor=#5C6369;imageBackground=none;imageBorder=none;sketch=0;movableLabel=0;" vertex="1" parent="1">
          <mxGeometry x="260" y="236" width="35" height="35" as="geometry" />
        </mxCell>
        <mxCell id="GCXEATkM0BUE0gOloB9m-11" value="" style="shape=image;html=1;verticalAlign=top;verticalLabelPosition=bottom;labelBackgroundColor=#ffffff;imageAspect=0;aspect=fixed;image=https://cdn4.iconfinder.com/data/icons/transportation-and-vehicle/128/Transportation_And_Vehicle_3-03-128.png;fillColor=#5C6369;imageBackground=none;imageBorder=none;sketch=0;movableLabel=0;" vertex="1" parent="1">
          <mxGeometry x="159" y="264" width="35" height="35" as="geometry" />
        </mxCell>
        <mxCell id="GCXEATkM0BUE0gOloB9m-12" value="" style="shape=image;html=1;verticalAlign=top;verticalLabelPosition=bottom;labelBackgroundColor=#ffffff;imageAspect=0;aspect=fixed;image=https://cdn4.iconfinder.com/data/icons/transportation-and-vehicle/128/Transportation_And_Vehicle_3-03-128.png;fillColor=#5C6369;imageBackground=none;imageBorder=none;sketch=0;movableLabel=0;" vertex="1" parent="1">
          <mxGeometry x="337" y="264" width="35" height="35" as="geometry" />
        </mxCell>
        <mxCell id="GCXEATkM0BUE0gOloB9m-13" value="" style="shape=mxgraph.signs.sports.rv;html=1;pointerEvents=1;fillColor=#0050ef;strokeColor=#001DBC;verticalLabelPosition=bottom;verticalAlign=top;align=center;sketch=0;flipH=1;fontColor=#ffffff;" vertex="1" parent="1">
          <mxGeometry x="452" y="243" width="33.53" height="21" as="geometry" />
        </mxCell>
        <mxCell id="GCXEATkM0BUE0gOloB9m-22" value="" style="shape=mxgraph.cisco.people.standing_man;html=1;pointerEvents=1;dashed=0;fillColor=#036897;strokeColor=#ffffff;strokeWidth=2;verticalLabelPosition=bottom;verticalAlign=top;align=center;outlineConnect=0;labelBackgroundColor=#FF33C9;sketch=0;fontColor=#FF30D6;" vertex="1" parent="1">
          <mxGeometry x="560" y="221" width="9" height="18" as="geometry" />
        </mxCell>
      </root>
    </mxGraphModel>
  </diagram>
</mxfile>
